<mxfile host="app.diagrams.net" modified="2022-01-14T16:00:47.031Z" agent="5.0 (X11)" etag="cMlYWD00MsF9HDI0jtJ9" version="14.8.4" type="github">
  <diagram name="Page-1" id="822b0af5-4adb-64df-f703-e8dfc1f81529">
    <mxGraphModel dx="1383" dy="797" grid="1" gridSize="10" guides="1" tooltips="1" connect="1" arrows="1" fold="1" page="1" pageScale="1" pageWidth="1100" pageHeight="850" background="none" math="0" shadow="0">
      <root>
        <mxCell id="0" />
        <mxCell id="1" parent="0" />
        <mxCell id="6nPlPKnWwlBXfayI5A1S-11" value="" style="whiteSpace=wrap;html=1;aspect=fixed;" vertex="1" parent="1">
          <mxGeometry x="390" y="33.5" width="460" height="460" as="geometry" />
        </mxCell>
        <mxCell id="6nPlPKnWwlBXfayI5A1S-12" value="&lt;div style=&quot;font-size: 24px;&quot;&gt;Delegacia&lt;/div&gt;&lt;div style=&quot;font-size: 24px;&quot;&gt;&lt;br style=&quot;font-size: 24px;&quot;&gt;&lt;/div&gt;" style="text;html=1;strokeColor=none;fillColor=none;align=center;verticalAlign=middle;whiteSpace=wrap;rounded=0;fontSize=24;" vertex="1" parent="1">
          <mxGeometry x="496" y="120" width="96" height="20" as="geometry" />
        </mxCell>
        <mxCell id="6nPlPKnWwlBXfayI5A1S-13" value="" style="shape=image;html=1;verticalAlign=top;verticalLabelPosition=bottom;labelBackgroundColor=#ffffff;imageAspect=0;aspect=fixed;image=https://cdn3.iconfinder.com/data/icons/document-icons-2/30/647708-excel-128.png;fontSize=24;" vertex="1" parent="1">
          <mxGeometry x="420" y="230" width="67" height="67" as="geometry" />
        </mxCell>
        <mxCell id="6nPlPKnWwlBXfayI5A1S-14" value="" style="image;html=1;image=img/lib/clip_art/computers/Database_128x128.png;fontSize=24;" vertex="1" parent="1">
          <mxGeometry x="640" y="210" width="80" height="80" as="geometry" />
        </mxCell>
        <mxCell id="6nPlPKnWwlBXfayI5A1S-16" style="edgeStyle=orthogonalEdgeStyle;rounded=0;orthogonalLoop=1;jettySize=auto;html=1;entryX=0.75;entryY=0;entryDx=0;entryDy=0;fontSize=24;" edge="1" parent="1" source="6nPlPKnWwlBXfayI5A1S-15" target="6nPlPKnWwlBXfayI5A1S-13">
          <mxGeometry relative="1" as="geometry" />
        </mxCell>
        <mxCell id="6nPlPKnWwlBXfayI5A1S-17" style="edgeStyle=orthogonalEdgeStyle;rounded=0;orthogonalLoop=1;jettySize=auto;html=1;fontSize=24;" edge="1" parent="1" source="6nPlPKnWwlBXfayI5A1S-15" target="6nPlPKnWwlBXfayI5A1S-14">
          <mxGeometry relative="1" as="geometry" />
        </mxCell>
        <mxCell id="6nPlPKnWwlBXfayI5A1S-15" value="" style="shape=image;html=1;verticalAlign=top;verticalLabelPosition=bottom;labelBackgroundColor=#ffffff;imageAspect=0;aspect=fixed;image=https://cdn1.iconfinder.com/data/icons/DarkGlass_Reworked/128x128/mimetypes/source_py.png;fontSize=24;" vertex="1" parent="1">
          <mxGeometry x="532" y="160" width="60" height="60" as="geometry" />
        </mxCell>
        <mxCell id="6nPlPKnWwlBXfayI5A1S-19" value="ETL&lt;span style=&quot;white-space: pre ; font-size: 18px&quot;&gt;	 #1&lt;/span&gt;" style="text;html=1;strokeColor=none;fillColor=none;align=center;verticalAlign=middle;whiteSpace=wrap;rounded=0;fontSize=18;" vertex="1" parent="1">
          <mxGeometry x="542" y="230" width="40" height="20" as="geometry" />
        </mxCell>
        <mxCell id="6nPlPKnWwlBXfayI5A1S-20" value="Dados" style="text;html=1;strokeColor=none;fillColor=none;align=center;verticalAlign=middle;whiteSpace=wrap;rounded=0;fontSize=18;" vertex="1" parent="1">
          <mxGeometry x="433" y="306" width="40" height="20" as="geometry" />
        </mxCell>
        <mxCell id="6nPlPKnWwlBXfayI5A1S-21" value="" style="group" vertex="1" connectable="0" parent="1">
          <mxGeometry x="510" y="320" width="142" height="94" as="geometry" />
        </mxCell>
        <mxCell id="7d933b09d9755ecc-13" value="" style="ellipse;whiteSpace=wrap;html=1;rounded=0;shadow=0;comic=0;strokeWidth=1;fontFamily=Verdana;" parent="6nPlPKnWwlBXfayI5A1S-21" vertex="1">
          <mxGeometry width="142" height="94" as="geometry" />
        </mxCell>
        <mxCell id="7d933b09d9755ecc-6" value="Users" style="verticalLabelPosition=bottom;aspect=fixed;html=1;verticalAlign=top;strokeColor=none;shape=mxgraph.citrix.users;rounded=0;shadow=0;comic=0;fontFamily=Verdana;" parent="6nPlPKnWwlBXfayI5A1S-21" vertex="1">
          <mxGeometry x="38" y="13" width="64.5" height="55" as="geometry" />
        </mxCell>
        <mxCell id="6nPlPKnWwlBXfayI5A1S-22" value="" style="ellipse;shape=cloud;whiteSpace=wrap;html=1;fontSize=18;" vertex="1" parent="1">
          <mxGeometry x="930" width="560" height="540" as="geometry" />
        </mxCell>
        <mxCell id="6nPlPKnWwlBXfayI5A1S-23" value="" style="dashed=0;outlineConnect=0;html=1;align=center;labelPosition=center;verticalLabelPosition=bottom;verticalAlign=top;shape=mxgraph.webicons.google;gradientColor=#DFDEDE;fontSize=18;" vertex="1" parent="1">
          <mxGeometry x="1140" y="68.8" width="70" height="71.2" as="geometry" />
        </mxCell>
        <mxCell id="6nPlPKnWwlBXfayI5A1S-24" value="" style="shape=image;verticalLabelPosition=bottom;labelBackgroundColor=#ffffff;verticalAlign=top;aspect=fixed;imageAspect=0;image=data:image/png,iVBORw0KGgoAAAANSUhEUgAAAYwAAAB/CAMAAADLlgV7AAAAz1BMVEX////w8PDv7+9Dhvry8vL9/f35+fn29vZ2dnf6+vo8eOFChfp1dXdzc3RxcXJubm+Li4zHx8fl5eWtra1+fn81f/rR0dGIiIm1tbWdnZ65zPNpaWrg4OB2ovunp6ji4uKmw/zPz8/D1/23zvy/v7+Tk5TCwsI/f+7j7P4obt9OjPoufPn49e+gv/zl6fF6pvvO3f1clPjw9f6OsfZjkOZFfuJSheOjvO/T4PqFq/bd5PHM2fJTj/jy9/7m7/5nmvicuO98oemLq+tslue4yezka06tAAAXs0lEQVR4nO1dC5/aOA5PMg4ODbYhhJA0aSgtsPOg7bTdvrbt9HZvv/9nOku28+A1YQZmQm98t/0NjiMU/SNZkm1hWbq5jq0aNT1Udziu6TFDiOno6B6nY3qIuemJ7v50rX0Gn9rDnRpda5/Bp/Zwp0bX2mfwqT3cqdG19hl8ag93anStfQaf2sOdGl1rn8Gn9nCnRtdaHeyUg51DMvFE93a6lqtbl+hGTQ81PV3TszakY3o6azc90d2fruXoVkFZtxJl01OirFsFZd3Kt+eJ7v507SPZv1Oz1y2gaz+B0R66T2C0iO4TGC2i+wRGi+g+gdEiunY7XLr70O2uP1yr+d1Fl5rWMW1rx46eBkOOQ1cGTF3V5B9H5rfoPpYcrKOh/AB0bWJncRKmsvFxPsvk51bzextdqxx8Ena1Spc6s7EQjHm9Xs9jXIj+zKHH45cm435/nBxRDtY+g1sFBqGzUDCv0npMhANKjgZGnzPG+0eUg7XP4DaBYQV9hKKn/wf/9zwm+g45Ghis12NPYGygm3lMq4O0T9C0krAwsu5DdycYkvwTGOt0M85QF7iYx1HgBFE8FxzRSIfWPeg+gbE/3UwwsE1MDCfFkCCXAHliSI9nph4OjEO6dGRZENYrKMtiSGepu6z96WpX0fEYqIWYB7TycHTSFxKLY7mgFTCO5doWEYcOntwOUZ9Jx/SYEcR0dM2Q4iZqerrQ41pfP75o0j5+Xe5DF3qwY44ThIgtt8av6w6Hlrs/vwXdXXJwLQRj3D0w3VK+1OSmnF0q52xRua3ruR9HI79JG43eLPeha6GJoDOBk8PiYPxahenZJQcFBj04XcPvcRKFb66koM/O5H/y31rzz9QFfcX3r74s951fiMNh7hb5wfitCG2XHKRruxmMNmdtb0Znm5u/6cNbsufD0VjIkJuN3UcAo3dyYLxb1Yddzf+43FczQpi9hQknmgSI4C5spFtxIlZ7uvqmmpmqg6Gck1aDcT3y61rg7wLH97+TZnT1w5FIePCGNud3Ei0WUSCnzBW6hJIsmk4jZ6PQgsFiEJFqdmVNM+QQILxKt0VguO+rsvfX/lhD44W9Fxg0h+BOzBryG81FCgF6Gg4npEqXkChhGLunLJ8UNyk5OEMP7xL5hM6GcTycWqua4QyZItwf2J0K3VaB8XK0Ufj+6p84h8Ofo+d7gUFAJh6bNOI3mKeY1IXGRU5KujRIZMhuLqXJhJZycIeC9zDv5XG+kON4mlsrmhHLIZAtll2iHxwIjAMHMNbPnUZpM0wN6JYPF4SY9SiGAL/gupfmH714ZGbAq2ndHg+dYkjkcd2L/3JvSo0c6FhULjH4Pq7BAG8K5NDtg63U9/ZY8WocZu3jUBH48tvIX1OCFST8+kUfgo3mDNsooX7BDPCbxbINTYMPKJ04VeJkHEGBlzhThDC3hdfkJcxyMTFVcrAdDZO8ZLDs8YRW0yHOmKsRQuAQxjXdAy8u3XPD79dtbu0uVfH/Is1NZQCvLUusKr9xyusthSklS1GSIkyGwzlT4gsDoEQClfMV3jzP51r4Ao2NS/r4kbP5ME48sQkMkgilTflikYcc6TpkC797yHcNjHt6Bi/2cWsLNL4t9wRDmo0qvzOhDUZPGY8eH0oiIU4u3gypOLmA6yBVec8ctSGNMTURDAVmHZWDFuMHkaBuyZhGGSIFRk+BEQEpGXUieh2JTA/yk83AeMCs7au6YmxCZoMR80ffSWMwHLQL8zoY3Ks3AAOTJszLqE5JzlBRpKGyyRRFDKEK6gmNmPlsUaUlMdVfrYaymmbAHzBEiwozZQxUrlVguJd3UQyJxvvmYNAQzUINjKqZYhqMbogiy2hBd6h0SovVw0lC0aUD7mlBL3BQ0inkEKuOChhOqnuQrhOHGr6WgfGmUAy/rhY1dfArPdrNHb1eNgXDGuOLWPiDwG+UQ0tU02BkRvQFXYSHeR0SMCN6QxdNkMcc/dbDa17IAaaXGhgDVBY1JEqEmlY4bxkYH0abpL/RMq2qxpnTGAwV9EVkld+uTk3rmBCtFBilku4QLqUBRdOjvCcDBiqEtFNdoY1SSRfuqpkpYIDNKcHdKaiITLA8O4KZuo83tVdSqt5GH5dNwZgW8trEL4mEylwhZl7N/EVK4jRGo+RU6JIA71pYgTRBPTEjFbrwfTUwYI7gMQWl0FCMFzY9hDd1uONT1nVt9vbrQcUtzfe/0mbHsiyCMQPL6EZ+KbzIPeFYCYqOVoZYE/CCxLSLYMiwsUKXwiUeF3iVdNHesbxDOgYMsJNsrjenMOHlWUGmLcfIbOf93RVDovGuaeBJQczSim/hF9/VsUMQjHmVX6IlbSkwArtKF2eYobZgkwpdAmDoCBwXl6iatJiHi/BhHFByv0D5CMfIlq9HO9QAF/bOdmiKf3XdNIWugjkx2MjvAOyNlCpNODpdFX6lRwu2KFMzMEMjb+hSCNalRxQV04mhSwarYPTNriAh5hHap9Zlbd/ueOtH/uX7dy/eX/qjHXBdNnUiUM5yJp5s4DdQgXZG1MSQOhV+Vb43JdrRWlS3gmoQiCN0lFLQRbtXAyPRMwUqRQN+Hx6M5beRfvErM4XShdGL1+fInHvz+sWoshbrVz1gf/TSagYGmagthCxb49fBhSeMATBMRrFqfglclE1SxdC8X9WMubzkeRNC0AZ53YIuIZDa5ZWsLZnhSmM/cgvhtSyFTv4aqcVtH9e5tVWCf69enFuV9vXXlcLA94vhZ2q93P9gr9Hd+HDKEfUYn1X5lQLMQhXyyRiAKFyEU/CLr7h66zFmFgNa0FULVn3pMqFCiWFBVyVEqllbIj0ulRcx5s+eRzv5fWgwlluSUv7ZK2ulvd6WZDcpqtvVnuYq0hLjrNiYRVwnV66mmNFCiiy0Fb9E7ylBdNSswyNqK7qZum8gMZzoP9UhHKJm9JqZsukcAUs0M4RIHzfvtAeM5fNRxTBVzNWlUgv3/PXLl9pYWeeXK1O5+UunqG4HA55fZcfTMezudJwgg/2dmCQUuVpURaskw+ep9IYpDRC/nlCbP+foC4lYpfogz6jWjQyGnsgdnUOE1GNNMyAowSGJWkfJxvJ24UWHAAOc0jXXy15zvey6a6tuK4RGfpSvu19OGv4ZYvHzzY+rEbQfL3/C5xu/YqDM3AE3/iIrdKn6YrvmKsIYonUD1hRYGIaeMGsPIiHqFjJNcXO6GOdxrPPkLFRPFTClAGESz5JQJzRwTYKodAuk0PNhAnf1VjRDyiHGtC0MiXMVb3iYtN/Kb0P57nPMaWuP+3JtGQPFO/oKX/bqTG9R8P2Rslpfr8wWKg2f/nP0vFv/pu1f3Z1VDmew4k+WDl0zxlV52soqEeMTV50+i/TdnOv90kwGg4qw45XrToasBKOjwOi7wMxcrFAWuduSY2T2280uq/SPLNzSVrpY/tUb6PvPSClGsc/NfKzR3Rl40gzfyZ6RV0+5m9PKXls60yt8+viGCPWCnKQ78bjqxavyLY+MHEgQ8pIuY2EPF5eccj1DKmYi1IEp7ddBzvYOgfKKfCtgNJw8N9i/ZT0pVbzwl3AnKE318tVr2fnzk7+S19XwvanS3T1vETroi+oiN3j+Dq3yS6N+qT9cDAkp6ZJE8PLOuVPQlbNNzs0lzqe5ydqOhdSjsQKDLspjU/gK7D/PHidrS76Pyry4b6YA/2wEYv+q18SNJZLxBMwjXy7OKn5tOcn4N43BgHk8y8dCt9RLBg4ldX6JPZ1zfXkYrBxTznK9H4cnUW3vFqFZovbhyElaJbkgcokhTx9rOUDKVg1J51NKGvH7EGDYvzb7qiOYrdev+S9k982zZxvvgRTVHh4doYTAHrXFNKMdvW2wzi+hTjaIIrVTbY2uMx0MBplNV7eYwl3RYJoBqYRD0FfdSGi+GsZEWWfjWfRHAgOSUiuLReolB6GrqRpWjyy9o8o/uwLV+BPRqDpe6sPoeh8wmvBLyjzeOl2qd2hW6cob7EpU3VcZ89OoUfh2y1orTt8ftZtVgqEnhv8826wb/vtDg7H3KVpnNqwsLnXU+gg5CTCWb7bszhmBF/tDZz6qYPi/5IXnF1vQgJGPeYo2G3oizcpl1xls/oBF1gcF446u7VInoyq2Bo3U2RUEGTBD//r1S5spc2xDXvgKYDw7KyZ+dROQev+olQyCVDpoTApf080wazWn96W73zEyXYKjWwYlpmdtSK3HuqrYmHIKkGBIx+jnSOmB0QwZhQN2BRibdMNflt+0+6vvxO8tQzqJ2pQWqSBuoAKUyLov3Sb8HuAY2dUGgaK9Qc3AN/2nBmP05s1LidNlCcazDVtvlwc6lnWn416UYhTIeD+ezYZjyJZ7fH5/ug90jGyLY+vjnPG+BsaV7Ln0yzljXTek2rxbPu7x58wkUfRG2h5j5BB0b+X3EGBcX5V23y+CPt9Hp+nNqAaGC2Cgm/WPAUN5uOYMoLzt66EOn9xVaBGrhPWwpXZyGLoPAca2HTqoAOdXYJQqYLhSZSDK/vysaPVTTrBn55ELA0BZErPfv5IpOQkwzresFmEE/s4ffayaqW+j0TcLI/DNaJy9PdgC/z2ENh2nAvaKinQ86B6Q7vHBAFukck++NjVquQLt1A3YK7cA46Mc+sGqWint4ZqT4V+WB3u4ewmNRPFwOJsGlJwYGD+3xOCXoBqvpEP7S4Ph/5IfIN/x4Vm9FVbqxwEf7n5Cw9oGhJxewcjXm4NwaaAAjStQk3evX7/A5SVcXfr72WY0rq7JEQK5Uyv5d0eUdcfyfRHq6Vy5+kdJ/vz9CEtTwD/v1TrsKhZ63lA525Kufei3st1018C408Znsu30mFp3tV69uIQl8MsX1/rG809raPwBYNzU6d5zI/F9TNqj/H7G6uA72T/b/bZ5Edz3tfg/nF9fn38ov+58XTf+MOt8j5u1fUS6hwHD6d5s2wtVCLho/3yBf28u1tDwccI/AaG1HIxOsXK0bqku/618W/f5s4sLhcaapbp4voFuG4XWejCsrcf5/NGnf65vfna7P2++//MJFGILGn/uWJFrldDaD8arbdnbM/+Pi4tnnz5//iSVQusAovGlbqkuvu8DxvZKOTu9HlUG7eECucc6Rlbutq3uLcew/I81i/Rl3aP6e9ns4bSjnmWZA5sCkF93GjXh1yXZLE+SPJ5soHsoOdyd7oZjZLrLWjvmZK0OqR33ss53HFzagMbX1a63m+muMGNZ0xQbVsqJHSpvstxQpIl7G79WdxGmgsnG03DWtep0DyWHVX6b0z3kr5EtP25AwyyorqOx4k2BrjSKaPEkEcMGRxsdF86HpeZczA5+aQRnU7GqEceNZ6R1Ebh9MPtH3m4+cKyWN9bQWGmf3Yb2GsEYQwuF8DgU7SBZ2mOC7uaXDiQUQiSLKBrkXEg4Zg+x/ebBE4WaiWUtRbUCzC1oXFw3fTgJBpt3VDWJmURjDttqYg92/u/iV2LhMR7rQTSWeiXR+H3BsJc/dp133YnGfxs/HIJBNL8SjRSKdlBH2utd/JJMWqgwK+jSLGS9NDpWEfsWgEGudxU42qUbFzd3A8NicCoSvrrKr97fXAMDjsdk3ZIuVDli491u8ErBSAK7E08GDL0dXWel6vPGTjQu/mn+cHUwxgwOf0H4UGqG48B5YFLWZnPxCLhY0CpdOCBWVjo0+2fLIa6TBZIOqWwFhfpupE5X3tBWMMhfu4vibUPj08+7gsFw5yWZ5XmkXvsgZ9Lt7Q9IoHaMK7o0YXgar0qXzhmetpgOh5HeJC3vGaoxHdhjLuksbAQ5Gg4H1gS2pifTCl343vjw58APtA9p617PnWiYpFSjgKsGRizfbpid5yKd4ZAZHLqQXq+YT4QISzA4FASp0yVT7nHbsoZpGmswMsY9JJzB6Qv0nfsB0J2lIoeLHo8zwVMz9zgeT2NyuH1TxXa2+xwjKzvojopT/jaf6nO32/zXvTpToatQWERikcZdSt2EiYXb6cCELiOI+TjlvC8nbNfcFKS9NOis0HW8nohca8h5bGFPB6rlOd2OmzHWE16/j74zlR0z+Z0hEzLWDLpzxhNLnZ4DL9u5hd895GvQOVQAUxx73WMWv/hObqVbCbgiFfRxziB4G+KQhItBF4M/9csyHTiFzEJiClFmEqR1unLCmRGacz6kjn7TmRfYdhBKpcBjZTMOh5YcEstvYr1Z4GT4/WwC/IChE/Gt/DaXbwWMBva6gf1bbtlguMNS/b1sQLectyJRHuRjuZq3pWYMujYdM6jciPxC2bWwqFUbCSwjskK3LwMPugYGoXCv9rzkLF/UvjCCHcNtNlZT0oWSWpe11UyUZ8pqCcNdaBSFERqDwSA3BdmpHh8HBRjoMkWmXrZ8u+8IhhPKqaGjv7oPkTqAwQeGF2mcQptgLRKW3M7vI4Jhiog0tlQXX/YMuCKYM9wuKPgCJtmOAUOKDAqCaH6lmS/BmKSecCvLxF2Nl1ismymSiR6LZ4sBtKl0uRIEIywDRK6KKTjM01N5a8Egb41WmH/19ltz0HIFjc/u/mDI99GFmIwGoTovr8BImBSr4TcQFTPVSWWkXtAlJFOih7J5a2BQrGlkzm3KqWdOEObyt5yGHP3kmdAllNoLhr38skk1qvtpq5bq4tW+qQjUDM0vXYgelMBRYMyrYBBe0QypBNJlMqdzgzyFilLSLZMzTA2MngEDEvSmjVfBmHBEcWyqRLcYDJvcWlC1oht/Nqe7AQwo4wFz6AbNcKqagQUmDF2apwzCCTll5B27rhk9DcYkywLdssxeAYMkcKf00MLuscA4WG6efL+1OH2pGx+a0y1cWwUG3lEFg0jzMSeGX+kHhaXLTATWusWPtiP1ZA4VbLlDnSoYUMQQ5gx5ocyudGxwbatg2BGX8Yh0p2dN+G0u3zsdI+us9dDaTe75r9Gt7UK2Z//9q7MHXezpqBS6GoJRnkO7EoyZ64I3Fbjqpk5felNWQbcj3VUxML//lcn5XHbwpNvpwgyQqDqs3VhOEY5LexJaFQbSTjaRzgJ4A/OKqCwwiCGYtNv53UO+x/k1Mss6f27aK9PWOv7996/NWdDb0yGmRmOAFWZtMFCQDlElIoFfqA/GynSIdH3GzOMmqQS1ajlE21BvaoHmBvIjAYQuBArXyngRmZFuLs8dS4FRkQO417qC8W38NpfvcX6NDG8qlnzNTUWRruKmDanuW+kiGP1MmfSZFEkakQKMqXzjE3z3FhClVcCwyUSOFWNdrmWAZ5MyjEmkbZIembwH8JKmTX4Hh7UPeFcnY+W+zjiAUZEDlHwTE9KA3+byPR4YR1usgWVXpp0dGRBg2TWKZkpeTaRgeRIPQ+ko9aqaAe/9GG/s5/lcqCq2erKf857w8hirt+DMLkHtsbQ/jJOUqTS70owKv8BEvTj+/ysYzDQuwgiegM65AsOC0kOQtuJhxOpgSJMzRHFDiSgoGQZ5DqQLv17CsKb9INRZ24HgeqBKPs0Er4MhA780egKDTMd9aHPZkkEH6dK8Px5oJwor5UhDH/AVMGSsF+jftUq9PJMe1VivgTtz3Pgzz5x5f64no0TFfElGwX0d9Pt5jd8AAr52r/Q9yG4LUs83I93qSp8zGEQOJdIDHq/SlUPsLIoyW3owWTrOit99o9FgEMBGpspi4FTR2cwv+NJPYOym68J6HwgV4rSiQvdGuiSySd3hqNPtmno7m/h1pJWjLT1G1pZjWbMQ6jZi4OmYH2XYSpfcg18IFI95jMxWjmcVZd1TRp7lHktN2Ayp7sxQPY9Bl/Yhn4r3dPq8x4/FL+ws4dnh6RbtdziWRSawNa0/yCIZVWMAchx+Me9C23qMrC3zC4GfQmR6M+3saPwGsHhO2nw+4x5MHI4umSS6imM/Ox6/cSowIfwExm66hMKvFS8GzlH51a7XExi30S2n1dPg97cG44TpWquDT9mbOnW6RSt/aqwYvJbzXvfbTccO//qJbmO6v1cEfup07SPZv1Oz1y2g+7slCk+a7hMYLaL7BEaL6D6B0SK6T2C0iO6hj5Hdab/QE10DxjF2FO67k+6JrmpWifKJBEa/MV2rHHxQ+3dq9roVdK19Bp/aw50aXWufwaf2cKdG9383SroAqaNNjwAAAABJRU5ErkJggg==;" vertex="1" parent="1">
          <mxGeometry x="1030" y="183" width="146.55" height="47" as="geometry" />
        </mxCell>
      </root>
    </mxGraphModel>
  </diagram>
</mxfile>
